<svg width="56" height="56" viewBox="0 0 56 56" fill="none" xmlns="http://www.w3.org/2000/svg">
<path d="M40.3946 30.7252C42.4393 30.7252 44.2387 29.6074 45.1656 27.9171L54.9256 10.2237C55.9343 8.42438 54.6257 6.18885 52.5537 6.18885H12.2051L9.64241 0.736328H0.727539V6.18885H6.18006L15.9946 26.8812L12.3141 33.5332C10.324 37.1864 12.9412 41.6302 17.0851 41.6302H49.8002V36.1777H17.0851L20.084 30.7252H40.3946ZM14.795 11.6414H47.9191L40.3946 25.2727H21.2563L14.795 11.6414ZM17.0851 44.3565C14.0862 44.3565 11.6598 46.8101 11.6598 49.809C11.6598 52.8079 14.0862 55.2615 17.0851 55.2615C20.084 55.2615 22.5376 52.8079 22.5376 49.809C22.5376 46.8101 20.084 44.3565 17.0851 44.3565ZM44.3477 44.3565C41.3488 44.3565 38.9224 46.8101 38.9224 49.809C38.9224 52.8079 41.3488 55.2615 44.3477 55.2615C47.3466 55.2615 49.8002 52.8079 49.8002 49.809C49.8002 46.8101 47.3466 44.3565 44.3477 44.3565Z" fill="#B7B2B2"/>
</svg>
