<svg width="50" height="50" viewBox="0 0 50 50" fill="none" xmlns="http://www.w3.org/2000/svg">
<path d="M38.3333 0H11.6667C5.22334 0 0 5.22334 0 11.6667V38.3333C0 44.7767 5.22334 50 11.6667 50H38.3333C44.7767 50 50 44.7767 50 38.3333V11.6667C50 5.22334 44.7767 0 38.3333 0Z" fill="white"/>
<path fill-rule="evenodd" clip-rule="evenodd" d="M10.4646 35.4013L19.2962 26.2555L21.4337 28.4076C21.9201 28.8987 22.4989 29.2886 23.1369 29.5547C23.7748 29.8208 24.4592 29.9578 25.1504 29.9578C25.8416 29.9578 26.526 29.8208 27.1639 29.5547C27.8018 29.2886 28.3807 28.8987 28.8671 28.4076L30.8004 26.4609L39.4446 35.4122C39.3066 35.4413 39.1633 35.4563 39.0166 35.4563H10.9421C10.7779 35.4563 10.6179 35.4372 10.4646 35.4013ZM41.0446 16.1451C41.0808 16.2993 41.1 16.4597 41.1 16.6247V33.373C41.1 33.9105 40.8962 34.4005 40.5625 34.7701L31.6808 25.5738L41.0441 16.1447L41.0446 16.1451ZM8.90039 33.7888V17.0413C8.90039 16.6797 8.99247 16.3392 9.15456 16.0426L18.4154 25.3684L9.36789 34.7372C9.13277 34.4666 8.97171 34.1401 8.90039 33.7888ZM40.345 15.0197L27.9958 27.3684C26.3687 28.9959 23.7304 28.9959 22.1033 27.3684L9.69206 14.958C10.04 14.6968 10.4729 14.5418 10.9421 14.5418H39.0162C39.5013 14.541 39.9713 14.7103 40.3446 15.0201L40.345 15.0197Z" fill="#B7B2B2"/>
</svg>
