<svg width="90" height="30" viewBox="0 0 90 30" fill="none" xmlns="http://www.w3.org/2000/svg">
<rect x="60" width="30" height="29.9994" rx="14.9997" fill="white"/>
<g clip-path="url(#clip0_358_154)">
<path d="M64.2216 0.176392C61.8831 0.176392 60 2.04551 60 4.36668V25.7638C60 28.085 61.8831 29.9541 64.2216 29.9541H85.7785C88.117 29.9541 90 28.085 90 25.7638V4.36668C90 2.04551 88.117 0.176392 85.7785 0.176392H64.2216ZM75.6722 3.21931C79.0767 3.21931 81.8447 5.96791 81.8447 9.347C81.8447 12.7258 79.0767 15.4728 75.6722 15.4728C72.2676 15.4728 69.4978 12.7258 69.4978 9.347C69.4978 5.96791 72.2676 3.21931 75.6722 3.21931ZM75.6066 6.8094C74.2275 6.84424 73.1156 7.97025 73.1156 9.34703C73.1156 10.7451 74.2628 11.8828 75.6722 11.8828C77.0813 11.8828 78.2269 10.7451 78.2269 9.34703C78.2269 7.94843 77.0813 6.8094 75.6722 6.8094C75.6502 6.8094 75.6285 6.80884 75.6066 6.8094ZM70.5609 15.6813C70.8879 15.6824 71.2178 15.7717 71.5153 15.9577C74.0422 17.5348 77.2996 17.5358 79.8272 15.9577C80.6735 15.4287 81.7889 15.6826 82.3219 16.5225C82.8542 17.361 82.5985 18.4697 81.7528 18.9978C80.6502 19.6857 79.4385 20.1837 78.1687 20.4709L81.6206 23.8972C82.3273 24.5971 82.3273 25.7347 81.6206 26.4357C80.9136 27.137 79.7698 27.137 79.0641 26.4357L75.6703 23.069L72.2803 26.4357C71.9273 26.7863 71.4641 26.9615 71.0016 26.9615C70.5385 26.9615 70.0769 26.7858 69.7228 26.4357C69.0163 25.7343 69.0165 24.5986 69.7228 23.8972L73.1728 20.4709C71.9165 20.1866 70.7042 19.693 69.5878 18.9978C68.7438 18.4697 68.49 17.3622 69.0225 16.5225C69.3544 15.9976 69.915 15.7011 70.4953 15.6822C70.5172 15.6815 70.539 15.6812 70.5609 15.6813Z" fill="#F48420"/>
</g>
<g clip-path="url(#clip1_358_154)">
<path d="M75 15C75 6.71573 68.2843 0 60 0C51.7157 0 45 6.71573 45 15C45 23.2843 51.7157 30 60 30C68.2843 30 75 23.2843 75 15Z" fill="#7B519D"/>
<path d="M67.3458 7.61531C66.8496 7.15919 64.8408 5.69864 60.3632 5.67863C60.3632 5.67863 55.0853 5.35851 52.5123 7.71938C51.0798 9.15188 50.5756 11.2447 50.5236 13.8456C50.4716 16.4426 50.4036 21.3124 55.0973 22.6328H55.1013L55.0973 24.6456C55.0973 24.6456 55.0693 25.4619 55.6055 25.6259C56.2537 25.826 56.6378 25.2057 57.2581 24.5375C57.5982 24.1694 58.0663 23.6332 58.4225 23.2211C61.6317 23.4891 64.1006 22.8729 64.3807 22.7809C65.0289 22.5688 68.6983 22.1006 69.2945 17.2309C69.9107 12.221 68.9943 9.04788 67.3458 7.61531ZM67.89 16.8787C67.3858 20.9442 64.4127 21.2003 63.8645 21.3764C63.6324 21.4524 61.4636 21.9926 58.7346 21.8125C58.7346 21.8125 56.7018 24.2654 56.0697 24.9017C55.9696 25.0017 55.8535 25.0417 55.7775 25.0217C55.6695 24.9937 55.6375 24.8656 55.6415 24.6776C55.6415 24.4055 55.6575 21.3284 55.6575 21.3284C55.6535 21.3284 55.6535 21.3284 55.6575 21.3284C51.684 20.2279 51.9161 16.0824 51.9602 13.9136C52.0042 11.7449 52.4123 9.96419 53.6247 8.76775C55.7975 6.79906 60.2832 7.09113 60.2832 7.09113C64.0685 7.10713 65.8812 8.24756 66.3014 8.62769C67.6979 9.82813 68.4102 12.6892 67.89 16.8787Z" fill="white"/>
<path d="M62.208 13.9897C62.0759 13.9897 61.9639 13.8856 61.9559 13.7495C61.9119 12.8892 61.5077 12.4691 60.6834 12.4251C60.5434 12.4171 60.4353 12.297 60.4433 12.157C60.4513 12.0169 60.5714 11.9089 60.7114 11.9169C61.7998 11.9769 62.408 12.6012 62.464 13.7215C62.472 13.8616 62.364 13.9817 62.224 13.9857C62.216 13.9897 62.212 13.9897 62.208 13.9897Z" fill="white"/>
<path d="M63.5048 14.4219H63.5008C63.3607 14.4179 63.2487 14.3019 63.2527 14.1618C63.2727 13.2975 63.0246 12.5973 62.4964 12.021C61.9722 11.4448 61.248 11.1327 60.2916 11.0647C60.1515 11.0527 60.0475 10.9326 60.0595 10.7926C60.0715 10.6525 60.1916 10.5485 60.3317 10.5605C61.412 10.6405 62.2643 11.0166 62.8725 11.6809C63.4848 12.3491 63.7809 13.1855 63.7609 14.1738C63.7569 14.3139 63.6408 14.4219 63.5048 14.4219Z" fill="white"/>
<path d="M64.8332 14.9421C64.6931 14.9421 64.5811 14.8301 64.5811 14.69C64.5691 13.1414 64.1249 11.961 63.2206 11.0767C62.3283 10.2044 61.1958 9.76018 59.8634 9.74818C59.7233 9.74818 59.6113 9.63218 59.6113 9.49211C59.6113 9.35205 59.7273 9.23999 59.8634 9.23999C61.3319 9.25199 62.5803 9.74418 63.5687 10.7126C64.5611 11.6809 65.0693 13.0174 65.0853 14.682C65.0893 14.8261 64.9772 14.9421 64.8332 14.9421C64.8372 14.9421 64.8372 14.9421 64.8332 14.9421ZM60.7437 17.1228C60.7437 17.1228 61.0998 17.1549 61.2919 16.9187L61.664 16.4506C61.8441 16.2185 62.2803 16.0704 62.7044 16.3066C62.9405 16.4386 63.3686 16.7027 63.6328 16.8987C63.9168 17.1068 64.4931 17.587 64.4971 17.591C64.7731 17.8231 64.8372 18.1632 64.6491 18.5274C64.6491 18.5274 64.6491 18.5314 64.6491 18.5354C64.457 18.8755 64.197 19.1956 63.8728 19.4917C63.8688 19.4917 63.8688 19.4957 63.8648 19.4957C63.5967 19.7198 63.3326 19.8478 63.0765 19.8759C63.0445 19.8839 63.0085 19.8839 62.9605 19.8839C62.8485 19.8839 62.7364 19.8679 62.6244 19.8318L62.6164 19.8198C62.2162 19.7078 61.552 19.4277 60.4476 18.8154C59.7273 18.4193 59.1311 18.0152 58.6229 17.611C58.3548 17.3989 58.0827 17.1629 57.8026 16.8827C57.7946 16.8747 57.7826 16.8627 57.7746 16.8547C57.7666 16.8467 57.7546 16.8347 57.7466 16.8267C57.7386 16.8187 57.7266 16.8067 57.7186 16.7987C57.7106 16.7907 57.6986 16.7787 57.6906 16.7707C57.4145 16.4906 57.1744 16.2185 56.9623 15.9504C56.5581 15.4462 56.154 14.846 55.7579 14.1257C55.1456 13.0173 54.8655 12.3531 54.7535 11.9569L54.7415 11.9489C54.7055 11.8369 54.6895 11.7249 54.6895 11.6128C54.6895 11.5648 54.6895 11.5288 54.6975 11.4968C54.7295 11.2367 54.8575 10.9766 55.0776 10.7085C55.0776 10.7045 55.0816 10.7045 55.0816 10.7005C55.3777 10.3724 55.6978 10.1162 56.038 9.92418C56.038 9.92418 56.042 9.92418 56.046 9.92418C56.4061 9.73612 56.7462 9.80018 56.9823 10.0762C56.9823 10.0762 57.4665 10.6565 57.6746 10.9406C57.8706 11.2087 58.1347 11.6328 58.2668 11.8689C58.5029 12.2931 58.3548 12.7292 58.1227 12.9093L57.6546 13.2814C57.4185 13.4735 57.4505 13.8296 57.4505 13.8296C57.4505 13.8296 58.1428 16.4626 60.7437 17.1228Z" fill="white"/>
</g>
<g clip-path="url(#clip2_358_154)">
<path fill-rule="evenodd" clip-rule="evenodd" d="M45 0C53.2846 0 60 6.71543 60 15C60 23.2846 53.2846 30 45 30C36.7154 30 30 23.2846 30 15C30 6.71543 36.7154 0 45 0Z" fill="#0DDC4E"/>
<path fill-rule="evenodd" clip-rule="evenodd" d="M45.1367 22.5204C43.6709 22.5204 42.2282 22.1302 40.9662 21.3927C40.763 21.2739 40.5183 21.2422 40.2912 21.3041L37.5472 22.0571L38.5033 19.9514C38.6334 19.6653 38.5997 19.3313 38.4162 19.0761C37.3932 17.6594 36.8532 15.9854 36.8532 14.2369C36.8532 9.66909 40.5689 5.95339 45.1367 5.95339C49.7046 5.95339 53.4203 9.66909 53.4203 14.2369C53.4203 18.8047 49.7046 22.5204 45.1367 22.5204ZM45.1367 4.19995C39.6022 4.19995 35.1005 8.70238 35.1005 14.2369C35.1005 16.1837 35.6524 18.0531 36.7035 19.6758L35.1785 23.0344C35.0379 23.3444 35.0892 23.7072 35.3093 23.9659C35.4787 24.1635 35.7241 24.2739 35.9765 24.2739C36.5418 24.2739 39.6247 23.305 40.4093 23.0892C41.8598 23.8654 43.4859 24.2739 45.1367 24.2739C50.6706 24.2739 55.1737 19.7707 55.1737 14.2369C55.1737 8.70238 50.6706 4.20065 45.1367 4.19995Z" fill="white"/>
<path fill-rule="evenodd" clip-rule="evenodd" d="M47.2029 15.3531C46.8232 15.5084 46.5807 16.1032 46.3347 16.4069C46.2081 16.5622 46.0577 16.5869 45.8636 16.5088C44.4379 15.9408 43.3448 14.9889 42.5581 13.6771C42.4245 13.4739 42.4484 13.3129 42.6094 13.1238C42.847 12.844 43.1458 12.5263 43.2098 12.1488C43.3525 11.315 42.2621 8.72722 40.8217 9.89984C36.6774 13.2771 47.735 22.2341 49.7309 17.3897C50.2954 16.016 47.8328 15.0951 47.2029 15.3531Z" fill="white"/>
</g>
<g clip-path="url(#clip3_358_154)">
<path d="M45 15C45 23.284 38.284 30 30 30C21.716 30 15 23.284 15 15C15 6.71598 21.716 0 30 0C38.284 0 45 6.71598 45 15Z" fill="#0077FF"/>
<path fill-rule="evenodd" clip-rule="evenodd" d="M29.4333 21.579H30.6109C30.6109 21.579 30.966 21.5402 31.1475 21.344C31.3143 21.1642 31.3094 20.827 31.3094 20.827C31.3094 20.827 31.2858 19.2472 32.0196 19.0148C32.7429 18.785 33.6699 20.5411 34.6543 21.2161C35.3985 21.7279 35.9638 21.6156 35.9638 21.6156L38.5932 21.5791C38.5932 21.5791 39.9694 21.4942 39.3166 20.4122C39.263 20.3231 38.9367 19.6115 37.3608 18.1493C35.7119 16.6191 35.9324 16.8658 37.9196 14.2181C39.1298 12.6056 39.6129 11.6214 39.4628 11.1995C39.3179 10.7974 38.4288 10.9045 38.4288 10.9045L35.4663 10.9228C35.4663 10.9228 35.247 10.8928 35.0838 10.9894C34.9245 11.0846 34.8227 11.308 34.8227 11.308C34.8227 11.308 34.3539 12.5563 33.7286 13.6161C32.4099 15.8567 31.8825 15.9742 31.6671 15.8358C31.1658 15.5107 31.2911 14.533 31.2911 13.8383C31.2911 11.6681 31.62 10.7633 30.65 10.5298C30.3288 10.4516 30.0912 10.4004 29.2687 10.3927C28.2112 10.381 27.3168 10.3955 26.8103 10.6434C26.4734 10.8079 26.2136 11.1763 26.3716 11.197C26.5674 11.2229 27.0113 11.3172 27.2463 11.6371C27.5492 12.0496 27.5388 12.9763 27.5388 12.9763C27.5388 12.9763 27.7137 15.5315 27.1314 15.8488C26.7319 16.0672 26.1849 15.6216 25.0085 13.5899C24.4067 12.5495 23.9523 11.3995 23.9523 11.3995C23.9523 11.3995 23.8648 11.1852 23.7081 11.0701C23.5175 10.9304 23.2525 10.8863 23.2525 10.8863L20.4388 10.9045C20.4388 10.9045 20.0159 10.916 19.8606 11.1003C19.7235 11.2633 19.8503 11.6017 19.8503 11.6017C19.8503 11.6017 22.0527 16.7562 24.5477 19.3533C26.8351 21.7357 29.4333 21.579 29.4333 21.579Z" fill="white"/>
</g>
<g clip-path="url(#clip4_358_154)">
<path d="M15 30C23.2843 30 30 23.2843 30 15C30 6.71573 23.2843 0 15 0C6.71573 0 0 6.71573 0 15C0 23.2843 6.71573 30 15 30Z" fill="#239CD7"/>
<path d="M6.86383 14.675L21.3263 9.09877C21.9976 8.85627 22.5838 9.26252 22.3663 10.2775L22.3676 10.2763L19.9051 21.8775C19.7226 22.7 19.2338 22.9 18.5501 22.5125L14.8001 19.7488L12.9913 21.4913C12.7913 21.6913 12.6226 21.86 12.2351 21.86L12.5013 18.0438L19.4513 11.765C19.7538 11.4988 19.3838 11.3488 18.9851 11.6138L10.3963 17.0213L6.69383 15.8663C5.89008 15.6113 5.87258 15.0625 6.86383 14.675Z" fill="white"/>
</g>
<defs>
<clipPath id="clip0_358_154">
<rect x="60" y="0.176392" width="30" height="29.7777" rx="14.8888" fill="white"/>
</clipPath>
<clipPath id="clip1_358_154">
<rect width="30" height="30" fill="white" transform="translate(45)"/>
</clipPath>
<clipPath id="clip2_358_154">
<rect width="30" height="30" fill="white" transform="translate(30)"/>
</clipPath>
<clipPath id="clip3_358_154">
<rect width="30" height="30" fill="white" transform="translate(15)"/>
</clipPath>
<clipPath id="clip4_358_154">
<rect width="30" height="30" fill="white"/>
</clipPath>
</defs>
</svg>
