<svg width="905" height="905" viewBox="0 0 905 905" fill="none" xmlns="http://www.w3.org/2000/svg">
<rect x="487.458" y="243.605" width="295" height="295" transform="rotate(55.4023 487.458 243.605)" stroke="#F50909" stroke-opacity="0.45" stroke-width="5"/>
<rect x="493.842" y="208.83" width="345" height="345" transform="rotate(55.4023 493.842 208.83)" stroke="#F50909" stroke-opacity="0.4" stroke-width="5"/>
<rect x="481.643" y="279.202" width="245" height="245" transform="rotate(55.4023 481.643 279.202)" stroke="#F50909" stroke-opacity="0.5" stroke-width="5"/>
<rect x="468.875" y="348.75" width="145" height="145" transform="rotate(55.4023 468.875 348.75)" stroke="#F50909" stroke-opacity="0.6" stroke-width="5"/>
<rect x="462.492" y="383.525" width="95" height="95" transform="rotate(55.4023 462.492 383.525)" stroke="#F50909" stroke-opacity="0.65" stroke-width="5"/>
<rect x="455.572" y="419.102" width="45" height="45" transform="rotate(55.4023 455.572 419.102)" stroke="#F50909" stroke-opacity="0.7" stroke-width="5"/>
<rect x="450.434" y="446.472" width="5" height="5" transform="rotate(55.4023 450.434 446.472)" stroke="#F50909" stroke-opacity="0.75" stroke-width="5"/>
<rect x="475.259" y="313.976" width="195" height="195" transform="rotate(55.4023 475.259 313.976)" stroke="#F50909" stroke-opacity="0.55" stroke-width="5"/>
<rect x="525.76" y="34.9589" width="595" height="595" transform="rotate(55.4023 525.76 34.9589)" stroke="#F50909" stroke-opacity="0.15" stroke-width="5"/>
<rect x="534.415" y="3.47742" width="645" height="645" transform="rotate(55.4023 534.415 3.47742)" stroke="#F50909" stroke-opacity="0.1" stroke-width="5"/>
<rect x="519.945" y="70.5565" width="545" height="545" transform="rotate(55.4023 519.945 70.5565)" stroke="#F50909" stroke-opacity="0.2" stroke-width="5"/>
<rect x="507.177" y="140.105" width="445" height="445" transform="rotate(55.4023 507.177 140.105)" stroke="#F50909" stroke-opacity="0.3" stroke-width="5"/>
<rect x="502.497" y="177.349" width="395" height="395" transform="rotate(55.4023 502.497 177.349)" stroke="#F50909" stroke-opacity="0.35" stroke-width="5"/>
<rect x="513.561" y="105.331" width="495" height="495" transform="rotate(55.4023 513.561 105.331)" stroke="#F50909" stroke-opacity="0.25" stroke-width="5"/>
</svg>
