<svg width="805" height="805" viewBox="0 0 805 805" fill="none" xmlns="http://www.w3.org/2000/svg">
<rect x="215.754" y="302.13" width="295" height="295" transform="rotate(-16.0231 215.754 302.13)" stroke="#F50909" stroke-opacity="0.45" stroke-width="5"/>
<rect x="184.824" y="285.002" width="345" height="345" transform="rotate(-16.0231 184.824 285.002)" stroke="#F50909" stroke-opacity="0.4" stroke-width="5"/>
<rect x="247.645" y="318.982" width="245" height="245" transform="rotate(-16.0231 247.645 318.982)" stroke="#F50909" stroke-opacity="0.5" stroke-width="5"/>
<rect x="309.503" y="353.239" width="145" height="145" transform="rotate(-16.0231 309.503 353.239)" stroke="#F50909" stroke-opacity="0.6" stroke-width="5"/>
<rect x="340.433" y="370.367" width="95" height="95" transform="rotate(-16.0231 340.433 370.367)" stroke="#F50909" stroke-opacity="0.65" stroke-width="5"/>
<rect x="371.953" y="388.259" width="45" height="45" transform="rotate(-16.0231 371.953 388.259)" stroke="#F50909" stroke-opacity="0.7" stroke-width="5"/>
<rect x="396.261" y="401.848" width="5" height="5" transform="rotate(-16.0231 396.261 401.848)" stroke="#F50909" stroke-opacity="0.75" stroke-width="5"/>
<rect x="278.574" y="336.11" width="195" height="195" transform="rotate(-16.0231 278.574 336.11)" stroke="#F50909" stroke-opacity="0.55" stroke-width="5"/>
<rect x="30.1779" y="199.361" width="595" height="595" transform="rotate(-16.0231 30.1779 199.361)" stroke="#F50909" stroke-opacity="0.15" stroke-width="5"/>
<rect x="3.09294" y="181.129" width="645" height="645" transform="rotate(-16.0231 3.09294 181.129)" stroke="#F50909" stroke-opacity="0.1" stroke-width="5"/>
<rect x="62.068" y="216.213" width="545" height="545" transform="rotate(-16.0231 62.068 216.213)" stroke="#F50909" stroke-opacity="0.2" stroke-width="5"/>
<rect x="123.927" y="250.47" width="445" height="445" transform="rotate(-16.0231 123.927 250.47)" stroke="#F50909" stroke-opacity="0.3" stroke-width="5"/>
<rect x="157.739" y="266.769" width="395" height="395" transform="rotate(-16.0231 157.739 266.769)" stroke="#F50909" stroke-opacity="0.35" stroke-width="5"/>
<rect x="92.9972" y="233.341" width="495" height="495" transform="rotate(-16.0231 92.9972 233.341)" stroke="#F50909" stroke-opacity="0.25" stroke-width="5"/>
</svg>
