<svg width="899" height="891" viewBox="0 0 899 891" fill="none" xmlns="http://www.w3.org/2000/svg">
<rect x="655.436" y="394.099" width="295" height="295" transform="rotate(122.857 655.436 394.099)" stroke="#F50909" stroke-opacity="0.45" stroke-width="5"/>
<rect x="690.001" y="386.662" width="345" height="345" transform="rotate(122.857 690.001 386.662)" stroke="#F50909" stroke-opacity="0.4" stroke-width="5"/>
<rect x="620.33" y="402.376" width="245" height="245" transform="rotate(122.857 620.33 402.376)" stroke="#F50909" stroke-opacity="0.5" stroke-width="5"/>
<rect x="551.201" y="417.25" width="145" height="145" transform="rotate(122.857 551.201 417.25)" stroke="#F50909" stroke-opacity="0.6" stroke-width="5"/>
<rect x="516.636" y="424.687" width="95" height="95" transform="rotate(122.857 516.636 424.687)" stroke="#F50909" stroke-opacity="0.65" stroke-width="5"/>
<rect x="481.125" y="431.936" width="45" height="45" transform="rotate(122.857 481.125 431.936)" stroke="#F50909" stroke-opacity="0.7" stroke-width="5"/>
<rect x="453.877" y="437.685" width="5" height="5" transform="rotate(122.857 453.877 437.685)" stroke="#F50909" stroke-opacity="0.75" stroke-width="5"/>
<rect x="585.765" y="409.813" width="195" height="195" transform="rotate(122.857 585.765 409.813)" stroke="#F50909" stroke-opacity="0.55" stroke-width="5"/>
<rect x="862.822" y="349.478" width="595" height="595" transform="rotate(122.857 862.822 349.478)" stroke="#F50909" stroke-opacity="0.15" stroke-width="5"/>
<rect x="895.216" y="345.401" width="645" height="645" transform="rotate(122.857 895.216 345.401)" stroke="#F50909" stroke-opacity="0.1" stroke-width="5"/>
<rect x="827.715" y="357.755" width="545" height="545" transform="rotate(122.857 827.715 357.755)" stroke="#F50909" stroke-opacity="0.2" stroke-width="5"/>
<rect x="758.587" y="372.628" width="445" height="445" transform="rotate(122.857 758.587 372.628)" stroke="#F50909" stroke-opacity="0.3" stroke-width="5"/>
<rect x="722.395" y="382.585" width="395" height="395" transform="rotate(122.857 722.395 382.585)" stroke="#F50909" stroke-opacity="0.35" stroke-width="5"/>
<rect x="793.151" y="365.192" width="495" height="495" transform="rotate(122.857 793.151 365.192)" stroke="#F50909" stroke-opacity="0.25" stroke-width="5"/>
</svg>
