<svg width="791" height="791" viewBox="0 0 791 791" fill="none" xmlns="http://www.w3.org/2000/svg">
<rect x="284.79" y="214.842" width="295" height="295" transform="rotate(14.2942 284.79 214.842)" stroke="#F50909" stroke-opacity="0.45" stroke-width="5"/>
<rect x="266.736" y="184.444" width="345" height="345" transform="rotate(14.2942 266.736 184.444)" stroke="#F50909" stroke-opacity="0.4" stroke-width="5"/>
<rect x="303.812" y="245.488" width="245" height="245" transform="rotate(14.2942 303.812 245.488)" stroke="#F50909" stroke-opacity="0.5" stroke-width="5"/>
<rect x="339.92" y="306.284" width="145" height="145" transform="rotate(14.2942 339.92 306.284)" stroke="#F50909" stroke-opacity="0.6" stroke-width="5"/>
<rect x="357.972" y="336.683" width="95" height="95" transform="rotate(14.2942 357.972 336.683)" stroke="#F50909" stroke-opacity="0.65" stroke-width="5"/>
<rect x="376.15" y="368.04" width="45" height="45" transform="rotate(14.2942 376.15 368.04)" stroke="#F50909" stroke-opacity="0.7" stroke-width="5"/>
<rect x="390.274" y="392.04" width="5" height="5" transform="rotate(14.2942 390.274 392.04)" stroke="#F50909" stroke-opacity="0.75" stroke-width="5"/>
<rect x="321.866" y="275.886" width="195" height="195" transform="rotate(14.2942 321.866 275.886)" stroke="#F50909" stroke-opacity="0.55" stroke-width="5"/>
<rect x="176.468" y="32.451" width="595" height="595" transform="rotate(14.2942 176.468 32.451)" stroke="#F50909" stroke-opacity="0.15" stroke-width="5"/>
<rect x="162.291" y="3.03985" width="645" height="645" transform="rotate(14.2942 162.291 3.03985)" stroke="#F50909" stroke-opacity="0.1" stroke-width="5"/>
<rect x="195.491" y="63.096" width="545" height="545" transform="rotate(14.2942 195.491 63.096)" stroke="#F50909" stroke-opacity="0.2" stroke-width="5"/>
<rect x="231.598" y="123.893" width="445" height="445" transform="rotate(14.2942 231.598 123.893)" stroke="#F50909" stroke-opacity="0.3" stroke-width="5"/>
<rect x="252.558" y="155.033" width="395" height="395" transform="rotate(14.2942 252.558 155.033)" stroke="#F50909" stroke-opacity="0.35" stroke-width="5"/>
<rect x="213.545" y="93.4944" width="495" height="495" transform="rotate(14.2942 213.545 93.4944)" stroke="#F50909" stroke-opacity="0.25" stroke-width="5"/>
</svg>
