<svg width="457" height="426" viewBox="0 0 457 426" fill="none" xmlns="http://www.w3.org/2000/svg">
<path d="M155.838 44.5101C158.91 47.5526 162.146 50.4161 165.746 52.8101C184.11 65.0241 238.746 94.4126 325.402 82.4019C433.674 67.3949 417.79 176.257 402.21 205.27C386.63 234.284 329.332 287.47 324.519 314.119C319.707 340.767 340.3 413.551 292.048 391.711C243.796 369.87 215.922 318.715 152.587 324.661C89.2528 330.606 44.499 302.541 72.5348 252.398C100.57 202.255 134.089 169.898 91.3065 114.045C49.7113 59.7454 119.774 8.79414 155.838 44.5101Z" fill="#FFCACA"/>
<path d="M265.701 100.764C264.898 99.9559 264.438 98.8684 264.419 97.7292C264.399 96.59 264.82 95.4872 265.595 94.6514L294.163 63.8164C294.568 63.3796 295.057 63.0292 295.6 62.7862C296.144 62.5432 296.731 62.4126 297.326 62.4023C297.921 62.392 298.513 62.5021 299.064 62.7261C299.616 62.9502 300.116 63.2834 300.536 63.7059L303.002 66.1894C303.422 66.6119 303.752 67.1149 303.972 67.6681C304.192 68.2213 304.298 68.8134 304.283 69.4086C304.269 70.0039 304.134 70.59 303.887 71.1319C303.641 71.6737 303.287 72.16 302.847 72.5616L271.813 100.913C270.972 101.682 269.866 102.096 268.727 102.068C267.588 102.04 266.503 101.573 265.701 100.764Z" fill="#EF4D4D"/>
<path d="M247.618 90.254C246.935 89.9513 246.395 89.3963 246.112 88.705C245.829 88.0137 245.823 87.2397 246.097 86.5447L256.208 60.9035C256.351 60.5403 256.566 60.2098 256.84 59.9319C257.114 59.654 257.442 59.4344 257.803 59.2864C258.165 59.1383 258.552 59.0648 258.942 59.0704C259.333 59.0759 259.718 59.1603 260.075 59.3185L262.173 60.2485C262.53 60.4066 262.851 60.6354 263.117 60.9209C263.384 61.2064 263.589 61.5429 263.722 61.9099C263.855 62.277 263.912 62.6672 263.891 63.057C263.869 63.4468 263.769 63.8282 263.596 64.1782L251.388 88.8895C251.057 89.5595 250.48 90.0756 249.777 90.3299C249.075 90.5842 248.301 90.557 247.618 90.254Z" fill="#EF4D4D"/>
<path d="M229.22 94.4448C226.89 94.8643 224.553 92.865 223.92 89.9128L212.707 37.4918C212.038 34.359 213.538 31.3795 216.01 30.934L219.455 30.314C221.926 29.869 224.373 32.139 224.837 35.3078L232.606 88.3485C233.044 91.3368 231.55 94.0253 229.22 94.4448Z" fill="#EF4D4D"/>
<path d="M410.459 143.778L361.006 137.403C360.173 137.314 359.333 137.481 358.598 137.882C357.863 138.283 357.267 138.899 356.891 139.647L343.741 165.611L288.695 275.701C288.11 276.864 287.13 277.781 285.93 278.286C284.731 278.792 283.39 278.853 282.149 278.46L132.738 230.768C132.326 230.637 131.889 230.605 131.462 230.676C131.035 230.746 130.631 230.917 130.283 231.174C129.935 231.431 129.653 231.767 129.461 232.155C129.268 232.542 129.17 232.969 129.175 233.402L129.243 239.606C129.252 240.469 129.532 241.307 130.044 242.001C130.557 242.695 131.275 243.21 132.097 243.472L290.178 293.929C291.94 294.491 293.523 295.51 294.765 296.881C296.006 298.251 296.864 299.926 297.25 301.735L297.303 301.982C298.678 309.535 291.235 315.736 283.9 313.51L110.558 258.11C109.669 257.827 108.903 257.249 108.387 256.472C107.871 255.694 107.636 254.764 107.721 253.835L121.287 105.693C121.355 104.929 121.583 104.188 121.956 103.518C122.33 102.848 122.839 102.264 123.453 101.804C124.066 101.344 124.77 101.018 125.517 100.847C126.265 100.677 127.04 100.665 127.793 100.814L335.452 141.437L348.827 114.856C349.213 114.105 349.821 113.49 350.567 113.095C351.314 112.7 352.164 112.543 353.002 112.646L413.561 120.401C414.098 120.469 414.616 120.642 415.086 120.911C415.556 121.181 415.968 121.54 416.297 121.97C416.627 122.399 416.869 122.89 417.007 123.413C417.146 123.936 417.18 124.482 417.107 125.018L415.042 140.25C414.899 141.324 414.336 142.298 413.478 142.959C412.619 143.62 411.534 143.914 410.459 143.778Z" fill="#F50909"/>
<path d="M129.661 205.405L146.582 210.805L162.813 128.499L136.836 124.51L129.661 205.405Z" fill="#FFCACA"/>
<path d="M262.426 247.781L279.347 253.182L323.107 161.017L304.469 156.502L262.426 247.781Z" fill="#FFCACA"/>
<path d="M197.345 227.008L212.964 231.994L246.421 145.146L220.86 139.856L197.345 227.008Z" fill="#FFCACA"/>
<path d="M177.546 131.767L203.108 137.058L180.424 221.607L163.503 216.206L177.546 131.767Z" fill="#FFCACA"/>
<path d="M288.433 152.818L262.872 147.528L231.187 237.81L246.806 242.795L288.433 152.818Z" fill="#FFCACA"/>
<path d="M132.926 311.594C143.867 311.594 152.737 302.725 152.737 291.783C152.737 280.841 143.867 271.971 132.926 271.971C121.984 271.971 113.114 280.841 113.114 291.783C113.114 302.725 121.984 311.594 132.926 311.594Z" fill="#EF4D4D"/>
<path d="M256.579 351.062C267.521 351.062 276.391 342.193 276.391 331.251C276.391 320.309 267.521 311.439 256.579 311.439C245.637 311.439 236.768 320.309 236.768 331.251C236.768 342.193 245.637 351.062 256.579 351.062Z" fill="#EF4D4D"/>
<path d="M419.356 119.582L367.164 113.048C366.874 113.011 366.61 113.216 366.574 113.506L363.411 138.775C363.374 139.064 363.58 139.328 363.869 139.364L416.061 145.898C416.35 145.934 416.614 145.729 416.65 145.44L419.814 120.171C419.85 119.882 419.645 119.618 419.356 119.582Z" fill="#EF4D4D"/>
</svg>

