<svg width="850" height="850" viewBox="0 0 850 850" fill="none" xmlns="http://www.w3.org/2000/svg">
<rect x="502.933" y="228.196" width="295" height="295" transform="rotate(67.5135 502.933 228.196)" stroke="#F50909" stroke-opacity="0.45" stroke-width="5"/>
<rect x="516.47" y="195.536" width="345" height="345" transform="rotate(67.5135 516.47 195.536)" stroke="#F50909" stroke-opacity="0.4" stroke-width="5"/>
<rect x="489.778" y="261.781" width="245" height="245" transform="rotate(67.5135 489.778 261.781)" stroke="#F50909" stroke-opacity="0.5" stroke-width="5"/>
<rect x="462.703" y="327.103" width="145" height="145" transform="rotate(67.5135 462.703 327.103)" stroke="#F50909" stroke-opacity="0.6" stroke-width="5"/>
<rect x="449.166" y="359.764" width="95" height="95" transform="rotate(67.5135 449.166 359.764)" stroke="#F50909" stroke-opacity="0.65" stroke-width="5"/>
<rect x="434.844" y="392.266" width="45" height="45" transform="rotate(67.5135 434.844 392.266)" stroke="#F50909" stroke-opacity="0.7" stroke-width="5"/>
<rect x="423.885" y="418.266" width="5" height="5" transform="rotate(67.5135 423.885 418.266)" stroke="#F50909" stroke-opacity="0.75" stroke-width="5"/>
<rect x="476.241" y="294.442" width="195" height="195" transform="rotate(67.5135 476.241 294.442)" stroke="#F50909" stroke-opacity="0.55" stroke-width="5"/>
<rect x="584.159" y="32.2309" width="595" height="595" transform="rotate(67.5135 584.159 32.2309)" stroke="#F50909" stroke-opacity="0.15" stroke-width="5"/>
<rect x="599.226" y="3.26609" width="645" height="645" transform="rotate(67.5135 599.226 3.26609)" stroke="#F50909" stroke-opacity="0.1" stroke-width="5"/>
<rect x="571.004" y="65.8159" width="545" height="545" transform="rotate(67.5135 571.004 65.8159)" stroke="#F50909" stroke-opacity="0.2" stroke-width="5"/>
<rect x="543.928" y="131.138" width="445" height="445" transform="rotate(67.5135 543.928 131.138)" stroke="#F50909" stroke-opacity="0.3" stroke-width="5"/>
<rect x="531.538" y="166.57" width="395" height="395" transform="rotate(67.5135 531.538 166.57)" stroke="#F50909" stroke-opacity="0.35" stroke-width="5"/>
<rect x="557.467" y="98.4765" width="495" height="495" transform="rotate(67.5135 557.467 98.4765)" stroke="#F50909" stroke-opacity="0.25" stroke-width="5"/>
</svg>
